<?xml version="1.0" encoding="UTF-8" standalone="no"?>
<svg
   width="512"
   height="512"
   viewBox="0 0 512 512"
   fill="none"
   version="1.1"
   id="svg378"
   xml:space="preserve"
   xmlns="http://www.w3.org/2000/svg"><defs
     id="defs382" /><path
     d="M328.469 486.071H131.179C123.348 486.071 117 478.927 117 470.114V81.2916C117 75.0413 119.925 69.2527 124.698 66.0563L164.771 39.2203C169.853 35.817 175.831 34 181.948 34H375.279C386.645 34 395.859 43.214 395.859 54.58V407.05C395.859 413.422 393.826 419.583 390.129 424.41L352.339 473.759C346.353 481.576 337.638 486.071 328.469 486.071Z"
     fill="#00173C"
     id="path342" /><path
     d="M323.709 84.2154H144.608C140.577 84.2154 132.255 82.046 135.059 78.9031C139.043 74.438 145.102 74.4674 150.886 74.4955C151.342 74.4978 151.795 74.5 152.246 74.5H320.483C327.281 74.5 335.79 74.411 341.322 70.1221L366.5 51C371.074 47.4539 379.54 42.1558 384.026 45.8332C386 47.4999 378.149 53.9953 374.753 56.7927L352 75.4999C343.871 82.1959 343.5 91.7308 343.5 102.809V443.161C343.5 449.334 342.745 459.465 337.488 461.82C333.791 463.476 333.5 456.314 333.5 451.972V98.3816C333.5 90.4131 328.213 84.2154 323.709 84.2154Z"
     fill="#FF9CAE"
     id="path372" /><path
     d="M185.159 49.0604L179.906 51.9029C176.44 53.7787 178.011 58.319 182.127 58.319H227.854C231.046 58.319 234.159 57.4832 236.766 55.9265L241.118 53.3275C244.401 51.3674 242.76 47 238.742 47H193.487C190.535 47 187.645 47.715 185.159 49.0604Z"
     fill="#FF9CAE"
     id="path374" /><path
     d="M268.684 49.8011L265.232 52.1004C262.161 54.1458 263.872 58.319 267.781 58.319H316.33C319.536 58.319 322.662 57.4758 325.276 55.9064L329.579 53.3222C332.851 51.3574 331.207 47 327.194 47H278.244C274.775 47 271.408 47.9866 268.684 49.8011Z"
     fill="#FF9CAE"
     id="path376" /><g
     style="fill:none"
     id="g417"
     transform="translate(387.12114,-15.26972)"><path
       fill-rule="evenodd"
       clip-rule="evenodd"
       d="m -157.60034,339.68373 v 31.197 c 0,73.50386 160.8322073,-194.85209 66.843002,-200.729 l -25.135002,-0.792 -27.176,0.792 -21.797,-42.3828 c -2.019,-3.2292 -7.508,-7.74999 -13.321,0 -5.812,7.75 -20.989,20.1824 -27.852,25.4298 l -50.859,-27.8517 c -4.037,-1.6146 -12.11,-2.4219 -12.11,7.2656 0,9.6876 1.615,39.5571 2.422,53.2811 -9.883,7.578 -27.834,24.244 -34.099,39.596 h -30.4581 c -10.0211,0 -19.4251,4.166 -26.4531,11.739 -2.9291,3.145 -5.0792,6.815 -6.8477,10.667 -0.4475,0.588 -0.7345,1.255 -0.8843,2.003 -2.5672,6.502 -3.6743,13.599 -2.7259,20.859 l 0.2229,1.629 c 0.9805,7.441 3.5887,14.225 7.2096,20.253 0.2763,0.88 0.7345,1.659 1.4262,2.265 7.0926,10.534 17.7146,18.125 29.8695,20.661 -6.5713,11.151 -13.0476,21.487 -17.182,26.54 -10.8985,13.321 -31.4846,81.133 33.9064,94.454 9.6875,14.935 35.1175,31.242 59.3365,-23.008 3.229,-10.091 14.773,-32.453 35.117,-41.172 25.43,-10.899 58.125,-29.063 60.547,-32.696 z m -175.0256,53.649 c 5.2399,-1.839 14.9002,-5.884 20.2887,-13.069 3.4876,-4.65 -0.082,-9.284 -3.4956,-12.248 -2.5949,-2.252 -6.335,-2.237 -9.1599,-0.281 -3.2422,2.246 -7.1692,5.471 -8.2853,8.541 -1.7992,4.948 -1.1036,12.406 -0.6471,16.243 0.0746,0.626 0.7037,1.023 1.2992,0.814 z m 80.5726,-245.9106 1.541,25.9266 22.437,-12.465 z"
       fill="#00173c"
       id="path390"
       style="stroke:none;stroke-width:12.6;stroke-dasharray:none;stroke-opacity:1" /><path
       fill-rule="evenodd"
       clip-rule="evenodd"
       d="m -175.20234,254.32373 c -1.283,-2.78 -3.552,-7.064 -5.677,-9.34 -5.099,-5.48 -11.922,-8.494 -19.199,-8.494 h -131.2882 c -7.2703,0 -14.093,3.014 -19.1918,8.494 -2.1251,2.276 -3.685,4.931 -4.9681,7.719 -0.3246,0.425 -0.5329,0.907 -0.6415,1.449 -1.8626,4.704 -2.6658,9.84 -1.9777,15.093 l 0.1617,1.178 c 0.7114,5.384 2.6037,10.293 5.2306,14.655 0.2005,0.637 0.5329,1.2 1.0348,1.639 6.3753,9.444 16.6813,15.618 28.1631,15.618 h 9.7732 c 13.5279,0 26.0519,-5.868 35.2709,-15.671 0.023,-0.022 0.042,-0.044 0.062,-0.066 0.019,-0.022 0.039,-0.044 0.062,-0.066 4.079,-4.368 7.486,-9.489 10.02,-15.291 0.146,-0.241 0.27,-0.482 0.364,-0.753 0.064,-0.151 0.139,-0.296 0.214,-0.442 0.089,-0.171 0.178,-0.342 0.249,-0.523 1.892,-4.771 2.086,-9.811 1.027,-14.596 0,-0.026 0.007,-0.05 0.015,-0.074 0.008,-0.024 0.016,-0.047 0.016,-0.072 0,-0.63 -0.209,-1.193 -0.502,-1.705 -0.796,-2.598 -1.863,-5.121 -3.524,-7.389 -0.494,-0.659 -1.003,-1.287 -1.536,-1.88 h 12.655 c -0.533,0.593 -1.051,1.222 -1.523,1.873 -1.66,2.268 -2.727,4.792 -3.523,7.389 -0.3,0.519 -0.51,1.082 -0.51,1.712 0,0.026 0.008,0.05 0.016,0.074 0.008,0.023 0.015,0.047 0.015,0.072 -1.058,4.785 -0.857,9.832 1.043,14.632 0.065,0.167 0.146,0.323 0.227,0.48 0.072,0.139 0.144,0.28 0.206,0.428 0.093,0.285 0.224,0.549 0.387,0.797 2.472,5.677 5.802,10.704 9.781,15.013 0.021,0.026 0.042,0.052 0.063,0.078 0.108,0.132 0.21,0.259 0.347,0.375 9.209,9.76 21.71,15.605 35.207,15.605 h 9.774 c 11.48,0 21.787,-6.174 28.161,-15.627 0.502,-0.438 0.835,-1.002 1.035,-1.639 2.619,-4.36 4.519,-9.269 5.231,-14.654 l 0.161,-1.193 c 0.374,-2.841 0.308,-5.652 -0.128,-8.38 19.393,-17.584 39.718,-16.955 47.752,-14.277 5.6,-0.001 13.439,-1.681 0,-8.4 -13.105,-6.553 -37.923,7.659 -49.535,16.159 z m -11.291,1.676 c -0.551,-1.018 -1.211,-2.064 -1.961,-2.962 -0.134,-0.165 -0.252,-0.343 -0.371,-0.52 -0.157,-0.236 -0.315,-0.472 -0.509,-0.682 -3.323,-3.607 -7.701,-5.591 -12.322,-5.591 h -39.578 c -4.075,0 -7.891,2.045 -10.481,5.612 -0.151,0.21 -0.262,0.44 -0.373,0.671 -0.083,0.173 -0.167,0.345 -0.267,0.51 -0.351,0.682 -0.867,1.784 -1.323,2.962 z m -64.446,17.42 c 0.404,0.718 0.831,1.413 1.276,2.09 h 64.118 c 0.22,-0.684 0.417,-1.381 0.594,-2.09 0.327,-1.51 0.969,-4.982 0.919,-6.794 0.009,-0.372 0.012,-0.744 0.007,-1.115 h -70.198 c 0.093,0.374 0.197,0.746 0.313,1.115 0.446,1.391 1.666,4.696 2.971,6.794 z m 12.196,13.587 c -0.621,-0.407 -1.489,-1.134 -2.429,-1.986 h 50.259 c -0.625,0.767 -1.22,1.47 -1.667,1.986 -4.394,4.239 -10.107,6.793 -16.24,6.793 h -8.978 c -7.594,0 -14.806,-2.466 -20.945,-6.793 z m -106.2019,-31.007 h 67.1849 c -0.456,-1.178 -0.973,-2.28 -1.323,-2.962 -0.1,-0.165 -0.184,-0.337 -0.267,-0.509 -0.111,-0.232 -0.222,-0.462 -0.373,-0.672 -2.59,-3.567 -6.406,-5.612 -10.481,-5.612 h -39.5777 c -4.6209,0 -8.9997,1.984 -12.3221,5.591 -0.1944,0.21 -0.352,0.446 -0.5093,0.681 -0.1185,0.178 -0.2369,0.355 -0.3711,0.521 -0.7494,0.898 -1.4099,1.944 -1.9607,2.962 z m 64.4459,17.42 c -0.404,0.717 -0.83,1.413 -1.275,2.09 h -64.1194 c -0.2193,-0.684 -0.4168,-1.381 -0.5934,-2.09 -0.3274,-1.51 -0.9696,-4.982 -0.919,-6.794 -0.009,-0.372 -0.0119,-0.744 -0.007,-1.115 h 70.1983 c -0.093,0.374 -0.197,0.746 -0.313,1.115 -0.446,1.391 -1.666,4.696 -2.971,6.794 z m -9.766,11.601 h -50.2604 c 0.6253,0.767 1.2199,1.47 1.667,1.986 4.394,4.239 10.1076,6.793 16.2403,6.793 h 8.9784 c 7.5937,0 14.8057,-2.466 20.9447,-6.793 0.621,-0.407 1.489,-1.135 2.43,-1.986 z"
       fill="#ff385c"
       id="path392" /><path
       d="m -252.05334,147.42213 1.541,25.9266 22.437,-12.465 z"
       fill="#ff9cae"
       id="path394" /><path
       d="m -284.10334,413.35773 c -1.575,3.077 -2.715,5.357 -3.336,6.942 -3.161,5.523 -7.368,6.58 -12.901,3.326 -5.958,-3.243 -6.663,-7.274 -2.01,-12.103 1.294,-0.937 2.345,-2.17 3.067,-3.595 4.653,-9.74 8.6,-14.652 12.02,-14.652 4.652,0 7.191,2.456 7.46,7.191 0,1.41 -1.398,5.71 -4.3,12.891 z"
       fill="#ff9cae"
       id="path396" /><path
       d="m -135.84534,324.92873 c 12.02,-15.791 17.905,-33.334 17.719,-52.638 -0.694,-5.699 -3.938,-8.497 -9.74,-8.497 -7.886,0 -10.953,2.891 -9.295,8.673 0.528,9.481 -0.342,17.284 -2.798,23.428 -3.958,9.74 -8.341,17.025 -13.076,21.843 -2.632,5.181 -1.057,8.953 4.652,11.315 5.44,2.549 9.647,1.233 12.538,-4.124 z"
       fill="#ff9cae"
       id="path398" /><path
       d="m -332.62604,393.33273 c 5.2399,-1.838 14.9002,-5.884 20.2887,-13.069 3.4876,-4.65 -0.082,-9.284 -3.4956,-12.247 -2.5949,-2.253 -6.335,-2.238 -9.1599,-0.282 -3.2421,2.246 -7.1692,5.471 -8.2853,8.541 -1.7992,4.948 -1.1036,12.407 -0.6471,16.243 0.0746,0.626 0.7037,1.023 1.2992,0.814 z"
       fill="#ff9cae"
       id="path402" /><path
       fill-rule="evenodd"
       clip-rule="evenodd"
       d="m -115.89234,170.06477 -27.176,0.792 -21.797,-42.3828 c -2.019,-3.2292 -7.508,-7.74999 -13.321,0 -5.812,7.75 -20.989,20.1824 -27.852,25.4298 l -50.859,-27.8517 c -4.037,-1.6146 -12.11,-2.4219 -12.11,7.2656 0,9.6876 1.615,39.5571 2.422,53.2811 -9.883,7.578 -27.834,24.244 -34.099,39.596 h -30.4581 c -10.0211,0 -19.4251,4.166 -26.4531,11.739 -2.9291,3.145 -5.0792,6.815 -6.8477,10.667 -0.4475,0.588 -0.7345,1.255 -0.8843,2.003 -2.5672,6.502 -3.6743,13.599 -2.7259,20.859 l 0.2229,1.629 c 0.9805,7.441 3.5887,14.225 7.2096,20.253 0.2763,0.88 0.7345,1.659 1.4262,2.265 7.0926,10.534 17.7146,18.125 29.8695,20.661 -6.5713,11.151 -13.0476,21.487 -17.182,26.54 -10.8985,13.321 -31.4846,81.133 33.9064,94.454 9.6875,14.935 35.1175,31.242 59.3365,-23.008 3.229,-10.091 14.773,-32.453 35.117,-41.172 25.43,-10.899 58.125,-29.063 60.547,-32.696 m -175.0256,53.649 c 5.2399,-1.839 14.9002,-5.884 20.2887,-13.069 3.4876,-4.65 -0.082,-9.284 -3.4956,-12.248 -2.5949,-2.252 -6.335,-2.237 -9.1599,-0.281 -3.2422,2.246 -7.1692,5.471 -8.2853,8.541 -1.7992,4.948 -1.1036,12.406 -0.6471,16.243 0.0746,0.626 0.7037,1.023 1.2992,0.814 z m 80.5726,-245.9106 1.541,25.9266 22.437,-12.465 z"
       fill="#00173c"
       id="path1303"
       style="fill:none;fill-opacity:1;stroke:#ff9cae;stroke-width:10;stroke-dasharray:none;stroke-opacity:1" /></g></svg>
