<?xml version="1.0" encoding="UTF-8" standalone="no"?>
<svg
   width="512"
   height="512"
   viewBox="0 0 512 512"
   fill="none"
   version="1.1"
   id="svg3518"
   xml:space="preserve"
   xmlns="http://www.w3.org/2000/svg"><defs
     id="defs3522" /><path
     d="M328.469 488.071H131.179C123.348 488.071 117 480.927 117 472.114V83.2916C117 77.0413 119.925 71.2527 124.698 68.0563L164.771 41.2203C169.853 37.817 175.831 36 181.948 36H375.279C386.645 36 395.859 45.214 395.859 56.58V409.05C395.859 415.422 393.826 421.583 390.129 426.41L352.339 475.759C346.353 483.576 337.638 488.071 328.469 488.071Z"
     fill="#00173C"
     id="path3480" /><path
     d="M375.002 421.131C378.776 416.282 380.857 410.055 380.857 403.609V57.8801C380.857 52.1971 376.25 47.5901 370.567 47.5901H191.628C186.258 47.5901 181.022 49.2706 176.656 52.3961L140.668 78.154C135.522 81.6529 132.884 87.156 132.884 93.4464V461.477C132.884 467.352 137.116 472.115 142.337 472.115H323.393C330.055 472.115 336.408 468.95 340.887 463.4L375.002 421.131Z"
     fill="#FF9CAE"
     id="path3482" /><path
     d="M319.149 89.1674H151.168C147.275 89.1674 145.293 83.903 148.002 80.7563C152.153 75.9336 158.216 75.8662 164.183 75.8662H319.047C325.613 75.8662 332.015 73.5579 337.359 69.2638L348.331 60.4463C353.973 55.9121 361.232 52.0204 368.02 54.5346L368.891 54.8575C372.625 56.2404 373.736 60.2401 370.649 62.7539L354.185 75.8662C343.734 85.7687 341.721 93.0224 341.721 104.114V447.435C341.721 453.616 339.598 459.186 334.521 461.544C330.95 463.201 327.027 460.247 327.027 455.9V98.0319C327.027 93.1361 323.5 89.1674 319.149 89.1674Z"
     fill="#00173C"
     id="path3484" /><path
     d="M183.383 60.3163L188.632 56.9569C191.116 55.3669 194.003 54.5219 196.953 54.5219H242.171C246.186 54.5219 247.825 59.6834 244.545 61.9999L240.196 65.0714C237.592 66.9111 234.481 67.8989 231.292 67.8989H185.602C181.49 67.8989 179.92 62.5331 183.383 60.3163Z"
     fill="#00173C"
     id="path3486" /><path
     d="M268.929 57.8323L265.479 60.5497C262.411 62.967 264.12 67.8989 268.027 67.8989H316.536C319.739 67.8989 322.863 66.9025 325.474 65.0477L329.774 61.9936C333.043 59.6716 331.4 54.5219 327.39 54.5219H278.48C275.015 54.5219 271.651 55.688 268.929 57.8323Z"
     fill="#00173C"
     id="path3488" /><g
     style="fill:none"
     id="g3941"
     transform="translate(-20.746993,40.72665)"><path
       fill-rule="evenodd"
       clip-rule="evenodd"
       d="m 245.789,286.194 c -3.75254,2.23232 -35.117,21.797 -60.547,32.696 -20.344,8.719 -31.888,31.081 -35.117,41.172 -24.219,54.25 -49.649,37.943 -59.3365,23.008 -65.391,-13.321 -44.8049,-81.133 -33.9064,-94.454 8.7188,-10.656 27.8517,-44.805 36.3283,-60.547 l 7.2656,-46.016 c 0,-17.437 24.219,-40.365 36.328,-49.649 -0.807,-13.724 -2.422,-43.5935 -2.422,-53.2811 0,-9.6875 8.073,-8.8802 12.11,-7.2656 l 50.859,27.8517 c 6.862,-5.2474 22.04,-17.6798 27.852,-25.4298 5.813,-7.75 11.302,-3.2292 13.321,0 l 21.797,42.3828 27.176,-0.792 c 0,0 16.756,1.03395 25.135,0.792 24.92371,-0.71968 -26.63359,145.61215 -66.843,169.532 z"
       fill="#00173c"
       id="path3887"/><path
       fill-rule="evenodd"
       clip-rule="evenodd"
       d="m 324.59229,135.07375 c -5.651,-1.614 -29.81329,-0.22875 -70.50129,0.74025 -2.825,-2.422 -13.276,-15.725 -23.932,-41.8816 -8.88,9.6876 -29.657,27.2086 -54.845,36.8956 -31.485,12.11 -48.078,28.217 -55.344,51.225 -5.812,18.406 -7.075,38.347 -7.478,46.016 -2.826,8.477 -14.9997,34.391 -33.4061,60.547 -23.0079,32.696 -29.5623,68.287 16.4535,75.553 0.8073,-1.615 2.7772,-3.248 12.4646,-11.966 5.248,-3.633 15.841,-6.285 11.966,10.184 -1.614,3.229 -5.931,9.374 -9.806,13.249 -3.875,3.875 0.309,5.081 2.328,5.485 3.632,0.403 8.646,-0.783 14.459,-10.471 1.369,-2.281 4.071,-5.868 5.983,-9.971 8.237,-17.678 21.372,-50.516 50.856,-61.327 35.646,-13.07 83.152,-35.311 83.779,-81.902 0.024,-1.758 0.377,-3.574 1.62,-4.818 3.579,-3.583 10.834,-6.48 15.782,0.461 0.746,1.047 9.55878,9.62873 9.65478,10.91073 z M 91.0521,326.774 c -5.3885,7.185 -15.0488,11.23 -20.2887,13.069 -0.5955,0.209 -1.2246,-0.188 -1.2992,-0.814 -0.4565,-3.837 -1.1522,-11.295 0.6471,-16.243 1.1161,-3.07 5.0431,-6.295 8.2853,-8.541 2.8249,-1.956 6.565,-1.971 9.1599,0.281 3.4136,2.964 6.9832,7.598 3.4956,12.248 z"
       fill="#ff9cae"
       id="path3889"/><path
       d="m 151.336,93.9324 1.541,25.9266 22.437,-12.465 z"
       fill="#ff9cae"
       id="path3891" /><path
       d="M 47.0011,182 H 301.299 v 9.688 h 9.686 v 9.687 h -9.687 l 10e-4,-9.687 h -60.548 v 12.109 h -7.266 v 7.266 h -9.688 v 7.266 h -9.687 v 9.687 h -46.016 v -9.687 h -9.688 v -7.266 h -7.265 V 191.688 H 136.61 l -0.001,19.375 h -9.687 v 7.266 h -7.265 v 9.687 H 71.2189 v -9.687 h -7.2655 v -7.266 h -9.6889 v -9.688 H 47 Z"
       fill="#810f23"
       id="path3893" /><path
       d="m 110.163,191.741 h -7.265 v 7.265 h 7.265 z"
       fill="#ff9cae"
       id="path3895" /><path
       d="m 93.21,201.428 h 7.266 v 7.266 H 93.21 Z"
       fill="#ff9cae"
       id="path3897" /><path
       d="m 110.163,201.428 h 7.265 v 7.266 h -7.265 z"
       fill="#ff9cae"
       id="path3899" /><path
       d="m 93.2097,211.116 h -7.2656 v 7.266 h 7.2656 z"
       fill="#ff9cae"
       id="path3901" /><path
       d="m 100.475,211.116 h 7.266 v 7.266 h -7.266 z"
       fill="#ff9cae"
       id="path3903" /><path
       d="m 119.85,191.741 h 7.266 v 7.265 h -7.266 z"
       fill="#ff9cae"
       id="path3905" /><path
       d="m 204.616,191.741 h -7.265 v 7.265 h 7.265 z"
       fill="#ff9cae"
       id="path3907" /><path
       d="m 187.663,201.428 h 7.266 v 7.266 h -7.266 z"
       fill="#ff9cae"
       id="path3909" /><path
       d="m 204.616,201.428 h 7.265 v 7.266 h -7.265 z"
       fill="#ff9cae"
       id="path3911" /><path
       d="m 187.663,211.116 h -7.266 v 7.266 h 7.266 z"
       fill="#ff9cae"
       id="path3913" /><path
       d="m 194.928,211.116 h 7.265 v 7.266 h -7.265 z"
       fill="#ff9cae"
       id="path3915" /><path
       d="m 214.303,191.741 h 7.266 v 7.265 h -7.266 z"
       fill="#ff9cae"
       id="path3917" /></g></svg>
